<?xml version="1.0" encoding="UTF-8" standalone="no"?>
<!-- Created with Inkscape (http://www.inkscape.org/) -->

<svg
   width="264.73935mm"
   height="264.73935mm"
   viewBox="0 0 264.73935 264.73935"
   version="1.1"
   id="svg5"
   inkscape:version="1.1 (c68e22c387, 2021-05-23)"
   sodipodi:docname="ambient scanner.svg"
   xmlns:inkscape="http://www.inkscape.org/namespaces/inkscape"
   xmlns:sodipodi="http://sodipodi.sourceforge.net/DTD/sodipodi-0.dtd"
   xmlns="http://www.w3.org/2000/svg"
   xmlns:svg="http://www.w3.org/2000/svg">
  <sodipodi:namedview
     id="namedview7"
     pagecolor="#ffffff"
     bordercolor="#cccccc"
     borderopacity="1"
     inkscape:pageshadow="0"
     inkscape:pageopacity="1"
     inkscape:pagecheckerboard="0"
     inkscape:document-units="mm"
     showgrid="false"
     inkscape:zoom="0.3884119"
     inkscape:cx="396.48631"
     inkscape:cy="505.90623"
     inkscape:window-width="1366"
     inkscape:window-height="705"
     inkscape:window-x="-8"
     inkscape:window-y="-8"
     inkscape:window-maximized="1"
     inkscape:current-layer="layer1" />
  <defs
     id="defs2" />
  <g
     inkscape:label="Layer 1"
     inkscape:groupmode="layer"
     id="layer1"
     transform="translate(0.75919264,-52.373832)">
    <rect
       style="fill:none;stroke:none;stroke-width:0.156;stroke-linecap:round;stroke-linejoin:round"
       id="rect846"
       width="264.58334"
       height="264.58334"
       x="-0.68119264"
       y="52.451832" />
    <g
       id="g2321"
       transform="translate(0.82137462,-5.8840799)">
      <path
         id="path1824"
         style="fill:none;stroke:#000000;stroke-width:4.68354;stroke-linecap:round;stroke-linejoin:round"
         d="m 167.35317,277.08193 a 35.77119,41.989839 0 0 0 0.0285,-1.68018 35.77119,41.989839 0 0 0 -35.77119,-41.98982 35.77119,41.989839 0 0 0 -35.771191,41.98982 35.77119,41.989839 0 0 0 0.02852,1.68018" />
      <rect
         style="fill:#00222b;stroke:#000000;stroke-width:3.25801;stroke-linecap:round;stroke-linejoin:round;stroke-miterlimit:4;stroke-dasharray:none"
         id="rect1196"
         width="133.5994"
         height="97.972893"
         x="64.810783"
         y="135.75705"
         ry="25.827562"
         rx="13.623854" />
      <rect
         style="fill:#666666;stroke:#000000;stroke-width:2.058;stroke-linecap:round;stroke-linejoin:round;stroke-miterlimit:4;stroke-dasharray:none"
         id="rect994"
         width="84.391151"
         height="61.886845"
         x="89.414902"
         y="153.80008"
         ry="23.629524" />
      <circle
         style="fill:#333333;stroke:#000000;stroke-width:2.058;stroke-linecap:round;stroke-linejoin:round;stroke-miterlimit:4;stroke-dasharray:none"
         id="path1322"
         cx="131.61047"
         cy="184.7435"
         r="13.623854" />
      <path
         id="path1728"
         style="fill:none;stroke:#000000;stroke-width:2.7134;stroke-linecap:round;stroke-linejoin:round"
         d="m 62.669959,214.32364 a 17.029818,29.603738 0 0 1 -0.681431,0.0236 17.029818,29.603738 0 0 1 -17.029819,-29.60374 17.029818,29.603738 0 0 1 17.029819,-29.60374 17.029818,29.603738 0 0 1 0.681431,0.0236" />
      <path
         id="path1813"
         style="fill:none;stroke:#000000;stroke-width:2.7134;stroke-linecap:round;stroke-linejoin:round"
         d="m 198.90825,214.32364 a 17.029818,29.603738 0 0 0 0.68143,0.0236 17.029818,29.603738 0 0 0 17.02982,-29.60374 17.029818,29.603738 0 0 0 -17.02982,-29.60374 17.029818,29.603738 0 0 0 -0.68143,0.0236" />
      <g
         id="g1822"
         transform="translate(173.84431,-23.841743)">
        <path
           id="path1588"
           style="fill:none;stroke:#000000;stroke-width:2.058;stroke-linecap:round;stroke-linejoin:round"
           d="m -25.217648,143.05059 a 17.029818,17.029818 0 0 1 -17.01618,16.34838 v 0 a 17.029818,17.029818 0 0 1 -17.01618,-16.34838" />
        <path
           id="path1815"
           style="fill:none;stroke:#000000;stroke-width:2.058;stroke-linecap:round;stroke-linejoin:round"
           d="m 8.814712,143.05059 a 17.029818,17.029818 0 0 0 -17.01618,-16.34838 v 0 a 17.029818,17.029818 0 0 0 -17.01618,16.34838" />
        <path
           id="path1817"
           style="fill:none;stroke:#000000;stroke-width:2.058;stroke-linecap:round;stroke-linejoin:round"
           d="M -59.250008,143.05059 A 17.029818,17.029818 0 0 0 -76.26619,126.70221 v 0 a 17.029818,17.029818 0 0 0 -17.01618,16.34838" />
      </g>
      <rect
         style="fill:#ff0000;stroke:#000000;stroke-width:0.630617;stroke-linecap:round;stroke-linejoin:round;stroke-miterlimit:4;stroke-dasharray:none"
         id="rect1848"
         width="9.6016951"
         height="9.6016951"
         x="74.36367"
         y="170.72821"
         rx="1.8785909"
         ry="0" />
      <rect
         style="fill:#008000;stroke:#000000;stroke-width:0.630617;stroke-linecap:round;stroke-linejoin:round;stroke-miterlimit:4;stroke-dasharray:none"
         id="rect1966"
         width="9.6016951"
         height="9.6016951"
         x="74.36367"
         y="196.61353"
         rx="1.8785909"
         ry="0" />
    </g>
  </g>
</svg>
